<?xml version="1.0" encoding="UTF-8" standalone="no"?>
<!-- Created with Inkscape (http://www.inkscape.org/) -->

<svg
   xmlns:dc="http://purl.org/dc/elements/1.1/"
   xmlns:cc="http://creativecommons.org/ns#"
   xmlns:rdf="http://www.w3.org/1999/02/22-rdf-syntax-ns#"
   xmlns:svg="http://www.w3.org/2000/svg"
   xmlns="http://www.w3.org/2000/svg"
   xmlns:sodipodi="http://sodipodi.sourceforge.net/DTD/sodipodi-0.dtd"
   xmlns:inkscape="http://www.inkscape.org/namespaces/inkscape"
   inkscape:export-ydpi="90.000000"
   inkscape:export-xdpi="90.000000"
   width="25.6"
   height="25.6"
   id="svg11300"
   sodipodi:version="0.32"
   inkscape:version="0.92.1 r15371"
   sodipodi:docname="activities.svg"
   inkscape:output_extension="org.inkscape.output.svg.inkscape"
   version="1.0"
   style="display:inline;enable-background:new">
  <sodipodi:namedview
     stroke="#ef2929"
     fill="#f57900"
     id="base"
     pagecolor="#bebebe"
     bordercolor="#525252"
     borderopacity="1"
     inkscape:pageopacity="1"
     inkscape:pageshadow="2"
     inkscape:zoom="32"
     inkscape:cx="10.424661"
     inkscape:cy="13.133929"
     inkscape:current-layer="layer1"
     showgrid="true"
     inkscape:grid-bbox="true"
     inkscape:document-units="px"
     inkscape:showpageshadow="true"
     inkscape:window-width="2560"
     inkscape:window-height="1024"
     inkscape:window-x="0"
     inkscape:window-y="0"
     width="400px"
     height="300px"
     inkscape:snap-nodes="true"
     inkscape:snap-bbox="true"
     gridtolerance="10000"
     inkscape:object-nodes="true"
     inkscape:snap-grids="true"
     showguides="false"
     inkscape:guide-bbox="true"
     inkscape:window-maximized="1"
     inkscape:bbox-nodes="true"
     inkscape:bbox-paths="false"
     inkscape:snap-bbox-edge-midpoints="false"
     inkscape:snap-bbox-midpoints="false"
     objecttolerance="10000"
     guidetolerance="10000"
     borderlayer="true"
     showborder="true"
     guidecolor="#ff0b00"
     guideopacity="1"
     guidehicolor="#001aff"
     guidehiopacity="0.49803922">
    <inkscape:grid
       type="xygrid"
       id="grid3123"
       empspacing="4"
       visible="true"
       enabled="true"
       snapvisiblegridlinesonly="true"
       originx="0"
       originy="0"
       spacingx="1.0666667"
       spacingy="1.0666667" />
    <sodipodi:guide
       position="12.8,12.8"
       orientation="1,0"
       id="guide4135"
       inkscape:locked="false" />
  </sodipodi:namedview>
  <defs
     id="defs3" />
  <metadata
     id="metadata4">
    <rdf:RDF>
      <cc:Work
         rdf:about="">
        <dc:format>image/svg+xml</dc:format>
        <dc:type
           rdf:resource="http://purl.org/dc/dcmitype/StillImage" />
        <dc:creator>
          <cc:Agent>
            <dc:title />
          </cc:Agent>
        </dc:creator>
        <dc:source />
        <cc:license
           rdf:resource="" />
        <dc:title></dc:title>
        <dc:subject>
          <rdf:Bag />
        </dc:subject>
        <dc:date />
        <dc:rights>
          <cc:Agent>
            <dc:title />
          </cc:Agent>
        </dc:rights>
        <dc:publisher>
          <cc:Agent>
            <dc:title />
          </cc:Agent>
        </dc:publisher>
        <dc:identifier />
        <dc:relation />
        <dc:language />
        <dc:coverage />
        <dc:description />
        <dc:contributor>
          <cc:Agent>
            <dc:title />
          </cc:Agent>
        </dc:contributor>
      </cc:Work>
      <cc:Work
         rdf:about="">
        <dc:format>image/svg+xml</dc:format>
        <dc:type
           rdf:resource="http://purl.org/dc/dcmitype/StillImage" />
      </cc:Work>
    </rdf:RDF>
  </metadata>
  <g
     style="display:inline"
     inkscape:groupmode="layer"
     inkscape:label="Base"
     id="layer1"
     transform="translate(0,-294.4)">
    <path
       inkscape:connector-curvature="0"
       style="fill:#1a1a1a;fill-opacity:1;stroke:none;stroke-width:1.42500114"
       d="M 4.2500024,304.458 C 2.6710999,304.458 1.4,305.72886 1.4,307.308 c 0,1.57866 1.2710999,2.85 2.8500024,2.85 1.5789003,0 2.8500003,-1.27134 2.8500003,-2.85 0,-1.57914 -1.2711,-2.85 -2.8500003,-2.85 z m 8.5499946,0 c -1.5789,0 -2.8499978,1.27086 -2.8499978,2.85 0,1.57866 1.2710978,2.85 2.8499978,2.85 1.5789,0 2.85,-1.27134 2.85,-2.85 0,-1.57914 -1.2711,-2.85 -2.85,-2.85 z m 8.550003,0 c -1.5789,0 -2.85,1.27086 -2.85,2.85 0,1.57866 1.2711,2.85 2.85,2.85 1.5789,0 2.85,-1.27134 2.85,-2.85 0,-1.57914 -1.2711,-2.85 -2.85,-2.85 z m -17.0999976,1.425 c 0.78945,0 1.4250002,0.63568 1.4250002,1.425 0,0.78932 -0.6355502,1.425 -1.4250002,1.425 -0.7894522,0 -1.4250021,-0.63568 -1.4250021,-1.425 0,-0.78932 0.6355499,-1.425 1.4250021,-1.425 z m 8.5499946,0 c 0.789453,0 1.425,0.63568 1.425,1.425 0,0.78932 -0.635547,1.425 -1.425,1.425 -0.789447,0 -1.425,-0.63568 -1.425,-1.425 0,-0.78932 0.635553,-1.425 1.425,-1.425 z m 8.550003,0 c 0.78945,0 1.425,0.63568 1.425,1.425 0,0.78932 -0.635552,1.425 -1.425,1.425 -0.78945,0 -1.425,-0.63568 -1.425,-1.425 0,-0.78932 0.63555,-1.425 1.425,-1.425 z"
       class="ColorScheme-Text"
       id="path4" />
  </g>
</svg>
